<svg id="Layer_1" data-name="Layer 1" xmlns="http://www.w3.org/2000/svg" viewBox="0 0 343.18 86.86"><defs><style>.cls-1{fill:#231f20;}.cls-2{fill:#333;}</style></defs><title>flashback</title><path class="cls-1" d="M103.58,152.37a10.47,10.47,0,0,1-.1,2.83,6.6,6.6,0,0,1-1.2,2.82,8.2,8.2,0,0,1-2.87,2.33,13.62,13.62,0,0,1-5,1.25,44.66,44.66,0,0,1-8.63-.25q-5.36-.58-11.8-1.47T60.61,158q-6.87-1-13.2-1.66T36,155.53a28.79,28.79,0,0,0-7.81.58,15.14,15.14,0,0,0-3.89,1.67,13.75,13.75,0,0,0-3.09,2.5,11.42,11.42,0,0,0-2,3.05,7.49,7.49,0,0,0-.61,3.28,7.81,7.81,0,0,0,.91,3.51,6.94,6.94,0,0,0,2.3,2.45,8.3,8.3,0,0,0,3.35,1.18,10,10,0,0,0,4.06-.32c.51-.15.6.19.29,1a11.57,11.57,0,0,1-1.83,3,18.53,18.53,0,0,1-3.51,3.34,11.08,11.08,0,0,1-4.67,2.11,12,12,0,0,1-4.35,0,10.16,10.16,0,0,1-3.64-1.43A7.55,7.55,0,0,1,9,178.78,8.27,8.27,0,0,1,8,175a19.7,19.7,0,0,1,1-7.27,21.64,21.64,0,0,1,3.37-6.28,24.94,24.94,0,0,1,5.19-5A26.87,26.87,0,0,1,24.14,153a26.79,26.79,0,0,1,7.28-1.35,88.22,88.22,0,0,1,9.42-.1q5.07.19,10.44.74t10.32,1.11q5,.59,9.19,1a56.2,56.2,0,0,0,6.91.33,45,45,0,0,0,6.68-.65,26,26,0,0,0,5.4-1.53,8.68,8.68,0,0,0,3.43-2.35A3.45,3.45,0,0,0,94,147c-.12-.49.26-.77,1.19-.82a8.24,8.24,0,0,1,3.2.59,10.45,10.45,0,0,1,3.4,2.05A5.48,5.48,0,0,1,103.58,152.37ZM21,201.22a1.7,1.7,0,0,1-.45,1.45,1,1,0,0,1-1.17.05,3,3,0,0,1-1.21-1.47,7.58,7.58,0,0,1-.59-3.08,6.29,6.29,0,0,1,1.5-4.55,10.62,10.62,0,0,1,4.3-2.8,26,26,0,0,1,6.4-1.43q3.66-.39,7.77-.47c.82-3,1.59-5.89,2.33-8.66s1.36-5.23,1.85-7.39.83-3.93,1-5.31.12-2.24-.22-2.48-.23-.42.14-.73a5,5,0,0,1,1.62-.82,13.86,13.86,0,0,1,2.48-.55,9.25,9.25,0,0,1,2.68,0,5,5,0,0,1,2.29.94,3.45,3.45,0,0,1,1.29,2.24,15.39,15.39,0,0,1,.06,4.12q-.24,2.4-.82,5.36c-.38,2-.89,4.09-1.5,6.36s-1.26,4.6-1.94,7c2.48-.07,5-.21,7.57-.44a69.91,69.91,0,0,0,7-1,26.06,26.06,0,0,0,5.2-1.48c1.36-.58,2.11-1.29,2.18-2.08s.32-1.17.81-1.23a1.88,1.88,0,0,1,1.43.47,2.75,2.75,0,0,1,1,1.52,1.85,1.85,0,0,1-.61,1.85,11.16,11.16,0,0,1-2.77,1.9,31.24,31.24,0,0,1-5,2,63.39,63.39,0,0,1-7.65,1.8q-4.5.81-10.57,1.4c-1,3.27-2,6.5-3,9.69s-1.83,6.18-2.57,9-1.32,5.28-1.72,7.46a16.47,16.47,0,0,0-.29,5.06c0,.43-.27.92-.94,1.41a4.65,4.65,0,0,1-2.42.88,5.92,5.92,0,0,1-3-.55,5.21,5.21,0,0,1-2.44-2.86,9.18,9.18,0,0,1-.34-4.14c.17-1.93.49-4.21,1-6.83s1.1-5.5,1.85-8.63,1.58-6.29,2.46-9.51c-2.14.26-4.15.55-6,.88a27.16,27.16,0,0,0-4.8,1.27,9.57,9.57,0,0,0-3.14,1.84A3.23,3.23,0,0,0,21,201.22Z" transform="translate(-7.96 -140.34)"/><path class="cls-1" d="M98.75,180.62c-.37.87-.9,2.07-1.59,3.59s-1.52,3.15-2.48,4.89-2,3.5-3.13,5.28A50.39,50.39,0,0,1,88,199.27,23.61,23.61,0,0,1,84.3,203a7.14,7.14,0,0,1-3.73,1.6,4.79,4.79,0,0,1-2.67-.42,5.18,5.18,0,0,1-1.93-1.8,8.43,8.43,0,0,1-1.12-2.94,15.08,15.08,0,0,1-.26-3.8A34.94,34.94,0,0,1,76,188.48c.88-3.08,1.94-6.46,3.21-10.15s2.62-7.44,4.05-11.28,2.73-7.37,3.88-10.58,2-5.9,2.66-8.05.72-3.42.34-3.72-.24-.64.45-1.08a6,6,0,0,1,2.62-.83,7.23,7.23,0,0,1,3.33.5,4.61,4.61,0,0,1,2.58,2.89,9.06,9.06,0,0,1-.07,4.87,60.53,60.53,0,0,1-2.18,7.4q-1.47,4.16-3.47,9t-4,9.56q-2,4.72-3.8,9.1t-2.85,7.65a21,21,0,0,0-1.13,5.17c0,1.27.37,1.81,1.22,1.66a3.83,3.83,0,0,0,1.88-1.32,36.89,36.89,0,0,0,2.46-3.06q1.35-1.86,2.76-4.13t2.68-4.54c.84-1.51,1.58-2.93,2.23-4.28a24.94,24.94,0,0,0,1.38-3.32,1.12,1.12,0,0,1,.73-.79,1.76,1.76,0,0,1,1-.06,1.35,1.35,0,0,1,.77.57A.91.91,0,0,1,98.75,180.62Z" transform="translate(-7.96 -140.34)"/><path class="cls-1" d="M115.51,171.06a2,2,0,0,1,.3-1.14,3.33,3.33,0,0,1,.86-.94,1.35,1.35,0,0,0-1.29-.85,3.87,3.87,0,0,0-2.38,1,16.91,16.91,0,0,0-2.71,3.07,38,38,0,0,0-2.93,4.89q-1.5,2.9-3,6.44a27.84,27.84,0,0,0-1.42,4.79,21.4,21.4,0,0,0-.49,4.85,12.55,12.55,0,0,0,.66,4,3.35,3.35,0,0,0,2,2.16,2.51,2.51,0,0,0,2.25-.34,8.91,8.91,0,0,0,2.28-2.22,32.79,32.79,0,0,0,2.29-3.57c.79-1.4,1.54-2.85,2.28-4.37s1.44-3,2.12-4.54,1.42-2.94,2-4.19c.7-1.59,1.31-3.28,1.95-4.79s1.17-2.86,1.59-4.06a17.17,17.17,0,0,0,.83-3.05c.12-.83,0-1.42-.3-1.69s-.22-.64.47-1.07a5.65,5.65,0,0,1,2.59-.77,7.05,7.05,0,0,1,3.27.56,4.59,4.59,0,0,1,2.49,2.94,9.09,9.09,0,0,1-.07,5.32,42.78,42.78,0,0,1-2.38,6.6c-1,2.3-2.15,4.57-3.32,6.83s-2.16,4.26-2.94,6a14.19,14.19,0,0,0-1.3,4.2c-.09,1,.47,1.49,1.62,1.33a3.94,3.94,0,0,0,1.87-1.28,30.85,30.85,0,0,0,2.59-3c.93-1.22,1.89-2.57,2.9-4.06s1.93-3,2.79-4.47,1.62-2.89,2.3-4.21a24.34,24.34,0,0,0,1.46-3.29,1.15,1.15,0,0,1,.75-.78,1.74,1.74,0,0,1,1,0,1.29,1.29,0,0,1,.76.58.91.91,0,0,1,0,1c-.39.87-.95,2-1.68,3.55s-1.6,3.12-2.6,4.83-2.1,3.45-3.27,5.19a51,51,0,0,1-3.64,4.8,24.46,24.46,0,0,1-3.82,3.61,7.22,7.22,0,0,1-3.77,1.5,4.58,4.58,0,0,1-4.45-2.16A10.32,10.32,0,0,1,114.7,194a37.16,37.16,0,0,1-2.88,4.4,14,14,0,0,1-3.34,3.21,9.65,9.65,0,0,1-3.9,1.54,9.75,9.75,0,0,1-4.67-.58,8.67,8.67,0,0,1-4.59-3.3,12.21,12.21,0,0,1-1.85-5,18.3,18.3,0,0,1,.13-5.75A36.26,36.26,0,0,1,95,183a38.8,38.8,0,0,1,3.72-8.09,25.58,25.58,0,0,1,4.59-5.6,17,17,0,0,1,5.17-3.23A15.34,15.34,0,0,1,114,165a10.91,10.91,0,0,1,2,.25,6.23,6.23,0,0,1,2,.79,5.21,5.21,0,0,1,1.58,1.56,4.67,4.67,0,0,1,.73,2.5,3.06,3.06,0,0,1-.69,2.29,2.46,2.46,0,0,1-1.61.74,2.63,2.63,0,0,1-1.7-.53A1.94,1.94,0,0,1,115.51,171.06Z" transform="translate(-7.96 -140.34)"/><path class="cls-1" d="M146.52,200.07l-.08.08a20.93,20.93,0,0,1-3.18,1.36,9.78,9.78,0,0,1-2.58.52,6.66,6.66,0,0,1-4.75-1.42,7.4,7.4,0,0,1-2.29-3.58,9.89,9.89,0,0,1-.29-4.22,6.19,6.19,0,0,1,1.36-3.28,9,9,0,0,1,2.72-2.19,4,4,0,0,1,2.07-.44,3.14,3.14,0,0,1,1.6.64,1.88,1.88,0,0,1,.77,1.49,2.14,2.14,0,0,1-.69,1.67,2.31,2.31,0,0,1-1.64.72,2.23,2.23,0,0,1-1.31-.37,2.09,2.09,0,0,1-.88-1.07,6.23,6.23,0,0,0-1.31,2.75,7.71,7.71,0,0,0-.06,3,4.51,4.51,0,0,0,1.26,2.41,3.6,3.6,0,0,0,2.67,1,4.31,4.31,0,0,0,1.75-.61,8.3,8.3,0,0,0,2.28-1.94,12.92,12.92,0,0,0,2-3.44,14.72,14.72,0,0,0,1-5,25.08,25.08,0,0,0-.82-6.84,38.41,38.41,0,0,0-3.47-8.74c-.49,1-1.05,2-1.67,3.17s-1.17,2.23-1.66,3.25a1.37,1.37,0,0,1-.91.63,1.9,1.9,0,0,1-1-.09,1.2,1.2,0,0,1-.68-.58,1,1,0,0,1,.09-.95c.39-.86.76-1.64,1.1-2.33s.69-1.34,1-1.95.67-1.24,1-1.87.61-1.31,1-2a9.64,9.64,0,0,1-1.95-5.6,6.6,6.6,0,0,1,.23-1.7,7,7,0,0,1,.88-2.06,5.67,5.67,0,0,1,1.8-1.78,5.82,5.82,0,0,1,3-.79,4.17,4.17,0,0,1,2.89.76,3,3,0,0,1,1,2.09,6.48,6.48,0,0,1-.49,2.84,16.66,16.66,0,0,1-1.57,3.09l-.23.45a41.52,41.52,0,0,1,5,6.38,31,31,0,0,1,2.87,5.83,19.4,19.4,0,0,1,1.13,5.18,15.23,15.23,0,0,1-.35,4.53c1.66-1.94,3.15-3.84,4.47-5.72a48.21,48.21,0,0,0,3.26-5.32,1.28,1.28,0,0,1,.69-.73,1.35,1.35,0,0,1,1.16.18,1.21,1.21,0,0,1,.67.82,1.43,1.43,0,0,1-.1,1,47.66,47.66,0,0,1-4.21,7c-1.59,2.18-3.35,4.37-5.26,6.56a40.5,40.5,0,0,1-4.26,4.15,22.19,22.19,0,0,1-5,3.12Z" transform="translate(-7.96 -140.34)"/><path class="cls-1" d="M157.19,197.75a8.92,8.92,0,0,1,.2-4.37,60,60,0,0,1,2.13-7.08c1-2.71,2.09-5.62,3.4-8.76s2.66-6.28,4.06-9.46l4.08-9.27q2-4.5,3.45-8.05a62.36,62.36,0,0,0,2.19-5.89c.47-1.56.55-2.51.23-2.79s-.2-.65.51-1.05a6,6,0,0,1,2.7-.69,7.17,7.17,0,0,1,3.3.68,4.62,4.62,0,0,1,2.37,3,7.8,7.8,0,0,1-.24,4.14,58.94,58.94,0,0,1-2.14,6.3q-1.43,3.57-3.38,7.8t-4,8.53a36.29,36.29,0,0,1,5.57-5,9.81,9.81,0,0,1,5.36-2.1,4.71,4.71,0,0,1,4.53,2.58,11.77,11.77,0,0,1,.89,6.79,22.77,22.77,0,0,1-1.2,5.38q-1,2.82-2.31,5.53t-2.56,5.15a39,39,0,0,0-2,4.26,6.47,6.47,0,0,0-.58,2.9c.07.73.62,1.09,1.64,1.1a3.53,3.53,0,0,0,1.92-1.09,27.4,27.4,0,0,0,2.7-2.85q1.47-1.77,3.06-4c1.06-1.48,2.07-2.94,3-4.39s1.77-2.83,2.51-4.16a25.21,25.21,0,0,0,1.59-3.26,1.13,1.13,0,0,1,.78-.74,1.73,1.73,0,0,1,1,0,1.32,1.32,0,0,1,.73.61.9.9,0,0,1-.05,1q-.64,1.28-1.83,3.48T198,186.74c-1.07,1.68-2.23,3.36-3.47,5.06a51.1,51.1,0,0,1-3.84,4.65,23.59,23.59,0,0,1-4,3.45,7.15,7.15,0,0,1-3.82,1.35,4.1,4.1,0,0,1-2.6-.72,6.05,6.05,0,0,1-1.76-2.14,10,10,0,0,1-1-3,12.31,12.31,0,0,1,0-3.43A28.86,28.86,0,0,1,179,185.8c.72-2,1.5-3.94,2.35-5.77s1.69-3.52,2.53-5.05a31.89,31.89,0,0,0,1.87-4,5.15,5.15,0,0,0,.44-2.6c-.13-.61-.76-.9-1.84-.84a6.22,6.22,0,0,0-2.93,1.66,37.11,37.11,0,0,0-4,4c-1.4,1.58-2.76,3.27-4.1,5.06a45.54,45.54,0,0,0-3.22,4.89l-1,2v.08l-.16.3q-2.42,5.37-3.8,9.16t-.75,4.9c.21.4.05.82-.48,1.25a3.35,3.35,0,0,1-2.05.71,4.73,4.73,0,0,1-2.61-.76A5.44,5.44,0,0,1,157.19,197.75Z" transform="translate(-7.96 -140.34)"/><path class="cls-1" d="M209.63,195.61a2.09,2.09,0,0,1-1.34,2,1.49,1.49,0,0,0,1.29.93,3.83,3.83,0,0,0,2.35-.9,16.24,16.24,0,0,0,2.9-2.88,43.67,43.67,0,0,0,3.21-4.64q1.68-2.76,3.39-6.25a27.4,27.4,0,0,0,1.79-4.75,25.76,25.76,0,0,0,.91-4.91,11.38,11.38,0,0,0-.32-4,2.83,2.83,0,0,0-2-2.13,4.47,4.47,0,0,0-3.73,1,20.6,20.6,0,0,0-3.9,3.76,48.92,48.92,0,0,0-3.84,5.39c-1.25,2-2.44,4-3.39,5.79s-1.84,3.77-2.66,5.5-1.49,3.27-2,4.64a29.47,29.47,0,0,0-1.08,3.5,3.26,3.26,0,0,0,0,2c.19.4,0,.82-.52,1.24a3.34,3.34,0,0,1-2.07.65,4.64,4.64,0,0,1-2.59-.81,5.4,5.4,0,0,1-2-3.11,8.89,8.89,0,0,1,.3-4.37,63.15,63.15,0,0,1,2.29-7q1.55-4,3.62-8.67t4.28-9.37q2.22-4.71,4.29-9.17c1.39-3,2.6-5.62,3.65-8s1.82-4.29,2.33-5.83.6-2.5.29-2.79-.18-.65.54-1a5.89,5.89,0,0,1,2.71-.62,7.16,7.16,0,0,1,3.28.75,4.59,4.59,0,0,1,2.31,3.08,7.38,7.38,0,0,1-.22,3.61,38.56,38.56,0,0,1-1.83,5.38c-.84,2.05-1.83,4.27-2.95,6.68s-2.35,4.89-3.65,7.42a14.36,14.36,0,0,1,5.66-3.11,9.64,9.64,0,0,1,6.52.7,8.84,8.84,0,0,1,4.38,3.71,11.78,11.78,0,0,1,1.44,5.1,18.38,18.38,0,0,1-.65,5.71,37.58,37.58,0,0,1-1.88,5.41,40.52,40.52,0,0,1-4.71,8.16,26.15,26.15,0,0,1-5.28,5.29,16.4,16.4,0,0,0,6.87-3,45.17,45.17,0,0,0,5.82-5.36,67.31,67.31,0,0,0,4.79-5.84,62.14,62.14,0,0,0,3.57-5.41,1.33,1.33,0,0,1,.73-.69,1.38,1.38,0,0,1,1.15.24,1.21,1.21,0,0,1,.63.85,1.49,1.49,0,0,1-.15,1,58.6,58.6,0,0,1-4.57,7,70.66,70.66,0,0,1-5.58,6.51,37.33,37.33,0,0,1-4.23,3.75,20.86,20.86,0,0,1-5,2.8,23.2,23.2,0,0,1-6.2,1.46,35.18,35.18,0,0,1-7.87-.16,12.49,12.49,0,0,1-1.94-.38,5.92,5.92,0,0,1-1.9-.9,5.06,5.06,0,0,1-1.46-1.64,4.84,4.84,0,0,1-.58-2.53,3.08,3.08,0,0,1,.65-2.1,2.35,2.35,0,0,1,1.78-.81,2.53,2.53,0,0,1,1.64.63A2,2,0,0,1,209.63,195.61Z" transform="translate(-7.96 -140.34)"/><path class="cls-1" d="M261.84,171.67a1.94,1.94,0,0,1,.41-1.11,3.38,3.38,0,0,1,.94-.86,1.34,1.34,0,0,0-1.2-1,3.83,3.83,0,0,0-2.47.82,16.56,16.56,0,0,0-3,2.8,38.61,38.61,0,0,0-3.36,4.6c-1.18,1.83-2.35,3.88-3.53,6.14a27.57,27.57,0,0,0-1.87,4.64,22.83,22.83,0,0,0-.93,4.79,12.59,12.59,0,0,0,.29,4,3.35,3.35,0,0,0,1.82,2.35,2.55,2.55,0,0,0,2.27-.13,9,9,0,0,0,2.47-2,32.48,32.48,0,0,0,2.62-3.35c.91-1.32,1.8-2.69,2.67-4.14s1.71-2.88,2.54-4.32,1.67-2.8,2.33-4c.84-1.52,1.61-3.14,2.38-4.59s1.44-2.74,2-3.89a17.26,17.26,0,0,0,1.1-3c.2-.82.15-1.41-.14-1.71s-.16-.66.56-1a5.72,5.72,0,0,1,2.66-.53,6.93,6.93,0,0,1,3.21.86,4.59,4.59,0,0,1,2.2,3.15,9.06,9.06,0,0,1-.56,5.29,42.27,42.27,0,0,1-3,6.36q-1.87,3.28-3.94,6.49c-1.39,2.14-2.54,4-3.48,5.73a14.17,14.17,0,0,0-1.68,4.06c-.19,1,.32,1.53,1.49,1.48a4.05,4.05,0,0,0,2-1.1,29.11,29.11,0,0,0,2.85-2.74q1.56-1.68,3.26-3.78t3.19-4.18q1.49-2.1,2.69-4a22.53,22.53,0,0,0,1.75-3.14,1.16,1.16,0,0,1,.83-.7,1.68,1.68,0,0,1,1,.07,1.27,1.27,0,0,1,.7.65.89.89,0,0,1-.1,1c-.47.83-1.14,2-2,3.38s-1.88,3-3,4.57-2.4,3.24-3.73,4.87a50.49,50.49,0,0,1-4.07,4.44,23.43,23.43,0,0,1-4.14,3.24,7.09,7.09,0,0,1-3.89,1.14,4.57,4.57,0,0,1-4.23-2.55,10.24,10.24,0,0,1-.76-6.38,38.83,38.83,0,0,1-3.27,4.11,14.38,14.38,0,0,1-3.63,2.89,9.71,9.71,0,0,1-4,1.18,9.82,9.82,0,0,1-4.59-1,8.64,8.64,0,0,1-4.26-3.71,12.12,12.12,0,0,1-1.39-5.14,18.15,18.15,0,0,1,.67-5.71,36.25,36.25,0,0,1,1.89-5.4,39.15,39.15,0,0,1,4.46-7.71,25.39,25.39,0,0,1,5.09-5.15,17,17,0,0,1,5.44-2.74,15.32,15.32,0,0,1,5.59-.56,11.5,11.5,0,0,1,2,.44,6.15,6.15,0,0,1,1.91,1,5.12,5.12,0,0,1,1.44,1.7,4.75,4.75,0,0,1,.49,2.55,3,3,0,0,1-.9,2.22,2.43,2.43,0,0,1-1.67.59,2.55,2.55,0,0,1-1.64-.69A2,2,0,0,1,261.84,171.67Z" transform="translate(-7.96 -140.34)"/><path class="cls-1" d="M302.79,174.27a2.07,2.07,0,0,1,.44-1.1,3.26,3.26,0,0,1,1-.83,1.36,1.36,0,0,0-1.18-1,3.88,3.88,0,0,0-2.49.76,16.89,16.89,0,0,0-3.06,2.72,39.68,39.68,0,0,0-3.48,4.51q-1.83,2.7-3.7,6a26.55,26.55,0,0,0-2,4.7A25.38,25.38,0,0,0,287.2,195a11.57,11.57,0,0,0,.15,4,2.63,2.63,0,0,0,1.85,2.13,6.52,6.52,0,0,0,3.67-.23,17.32,17.32,0,0,0,4.15-2.08,34.49,34.49,0,0,0,4.27-3.38,54.47,54.47,0,0,0,4-4.15,53,53,0,0,0,3.46-4.38,32.11,32.11,0,0,0,2.47-4.07,1.25,1.25,0,0,1,.84-.72,1.44,1.44,0,0,1,1.15.21,1.08,1.08,0,0,1,.41,1.62,62.92,62.92,0,0,1-3.51,5.34,57.43,57.43,0,0,1-4.51,5.43,54.18,54.18,0,0,1-5.2,4.85,28.06,28.06,0,0,1-5.57,3.59,16.75,16.75,0,0,1-5.71,1.59,10.59,10.59,0,0,1-5.57-1,8.56,8.56,0,0,1-4.17-3.82,12.19,12.19,0,0,1-1.25-5.17,18.5,18.5,0,0,1,.81-5.69,37.32,37.32,0,0,1,2-5.35,39.07,39.07,0,0,1,4.66-7.6,25.41,25.41,0,0,1,5.22-5,16.9,16.9,0,0,1,5.51-2.59,15.12,15.12,0,0,1,5.61-.42,10.88,10.88,0,0,1,2,.49,6.2,6.2,0,0,1,1.88,1,5.12,5.12,0,0,1,1.39,1.74,4.68,4.68,0,0,1,.43,2.57,3.17,3.17,0,0,1-.87,2.12,2.31,2.31,0,0,1-1.77.62,2.66,2.66,0,0,1-1.63-.73A2,2,0,0,1,302.79,174.27Z" transform="translate(-7.96 -140.34)"/><path class="cls-1" d="M303.65,202.31a8.87,8.87,0,0,1,.61-4.34,63,63,0,0,1,2.78-6.85q1.83-3.88,4.22-8.39t4.94-9l4.93-8.84c1.59-2.86,3-5.43,4.2-7.69s2.12-4.15,2.74-5.66.78-2.45.49-2.75-.14-.67.61-1a6,6,0,0,1,2.75-.43,7.15,7.15,0,0,1,3.22,1,4.57,4.57,0,0,1,2.09,3.23c.22,1.08-.11,2.69-1,4.83a71.06,71.06,0,0,1-3.48,7.36c-1.47,2.76-3.16,5.72-5,8.87s-3.78,6.3-5.67,9.41c1.16-.76,2.45-1.59,3.89-2.49s2.9-1.84,4.38-2.81,2.91-2,4.32-3,2.67-1.92,3.77-2.77a25.24,25.24,0,0,0,2.72-2.35,3.49,3.49,0,0,0,1.13-1.74c0-.45.44-.53,1.21-.26a5.64,5.64,0,0,1,2.2,1.63,6.41,6.41,0,0,1,1.43,3,4.45,4.45,0,0,1-1.09,3.63,11.54,11.54,0,0,1-3.23,2.78,37.56,37.56,0,0,1-4.75,2.4c-1.75.73-3.56,1.42-5.44,2s-3.69,1.19-5.4,1.69q1,1.83,2.45,5.15c.95,2.21,2,4.65,3.22,7.31s2.47,5.38,3.84,8.14a71.47,71.47,0,0,0,4.34,7.64,34.72,34.72,0,0,0,4.68,5.84,8.74,8.74,0,0,0,4.87,2.68c.45.06.61.41.46,1.08a4.71,4.71,0,0,1-1.27,2.1,9.26,9.26,0,0,1-2.8,1.93,7.31,7.31,0,0,1-4.09.51,9.26,9.26,0,0,1-6-3.5,29.81,29.81,0,0,1-4.34-7.44,73.45,73.45,0,0,1-3.16-9.4q-1.33-5-2.43-9.42c-.73-3-1.44-5.45-2.1-7.5s-1.43-3.27-2.28-3.65c-.76.28-1.41.54-2,.77a12.06,12.06,0,0,0-1.42.67q-2,3.3-3.69,6.3c-1.12,2-2.08,3.79-2.85,5.39a34.17,34.17,0,0,0-1.73,4.09,3.71,3.71,0,0,0-.24,2.4c.17.41,0,.82-.6,1.2a3.41,3.41,0,0,1-2.11.51,4.66,4.66,0,0,1-2.53-1A5.41,5.41,0,0,1,303.65,202.31Z" transform="translate(-7.96 -140.34)"/><path class="cls-2" d="M53.09,223.22V210.34h2.56l3.05,9.12c.28.85.49,1.49.62,1.91.14-.47.37-1.16.68-2.07l3.09-9h2.29v12.88H63.74V212.44L60,223.22H58.46l-3.73-11v11Z" transform="translate(-7.96 -140.34)"/><path class="cls-2" d="M67.61,217a7,7,0,0,1,1.73-5,5.85,5.85,0,0,1,4.44-1.81A6.15,6.15,0,0,1,77,211a5.6,5.6,0,0,1,2.19,2.38,8.25,8.25,0,0,1,0,7,5.39,5.39,0,0,1-2.25,2.35,6.37,6.37,0,0,1-3.12.79,6.08,6.08,0,0,1-3.26-.88,5.6,5.6,0,0,1-2.17-2.4A7.27,7.27,0,0,1,67.61,217Zm1.76,0a5.17,5.17,0,0,0,1.25,3.67,4.38,4.38,0,0,0,6.32,0,5.51,5.51,0,0,0,1.24-3.84,6.68,6.68,0,0,0-.53-2.75,4.16,4.16,0,0,0-1.56-1.82,4.22,4.22,0,0,0-2.3-.64,4.35,4.35,0,0,0-3.11,1.24C69.81,213.65,69.37,215,69.37,217Z" transform="translate(-7.96 -140.34)"/><path class="cls-2" d="M85.82,223.22l-5-12.88h1.85L86,219.7c.27.75.49,1.45.68,2.11.19-.71.43-1.41.69-2.11l3.48-9.36h1.74l-5,12.88Z" transform="translate(-7.96 -140.34)"/><path class="cls-2" d="M94.43,223.22V210.34h1.7v12.88Z" transform="translate(-7.96 -140.34)"/><path class="cls-2" d="M99.18,223.22V210.34h9.31v1.52h-7.61v3.94H108v1.52h-7.13v4.38h7.91v1.52Z" transform="translate(-7.96 -140.34)"/><path class="cls-2" d="M110.57,219.08l1.6-.14a3.56,3.56,0,0,0,.54,1.59,2.85,2.85,0,0,0,1.29,1,4.86,4.86,0,0,0,2,.38,4.56,4.56,0,0,0,1.72-.29,2.37,2.37,0,0,0,1.11-.79,1.83,1.83,0,0,0,.37-1.11,1.68,1.68,0,0,0-.35-1.05,2.52,2.52,0,0,0-1.16-.76,20.29,20.29,0,0,0-2.3-.63,12,12,0,0,1-2.48-.81,3.42,3.42,0,0,1-1.38-1.2,2.93,2.93,0,0,1-.45-1.6,3.24,3.24,0,0,1,.55-1.82,3.4,3.4,0,0,1,1.62-1.29,6,6,0,0,1,2.36-.44,6.42,6.42,0,0,1,2.53.46,3.62,3.62,0,0,1,1.68,1.36,3.84,3.84,0,0,1,.64,2l-1.64.12a2.62,2.62,0,0,0-.89-1.84,3.47,3.47,0,0,0-2.25-.63,3.57,3.57,0,0,0-2.25.57,1.7,1.7,0,0,0-.71,1.36,1.48,1.48,0,0,0,.5,1.15,6.93,6.93,0,0,0,2.57.92,16.35,16.35,0,0,1,2.86.82,3.87,3.87,0,0,1,1.66,1.31,3.25,3.25,0,0,1,.53,1.83,3.43,3.43,0,0,1-.59,1.94,3.84,3.84,0,0,1-1.69,1.42,6,6,0,0,1-2.48.5,7.4,7.4,0,0,1-2.93-.51,4.13,4.13,0,0,1-1.86-1.53A4.39,4.39,0,0,1,110.57,219.08Z" transform="translate(-7.96 -140.34)"/><path class="cls-2" d="M127.72,216.91a2.12,2.12,0,0,1,.66-1.57,2.22,2.22,0,0,1,3.14,0,2.12,2.12,0,0,1,.66,1.57,2.15,2.15,0,0,1-.66,1.58,2.22,2.22,0,0,1-3.14,0A2.15,2.15,0,0,1,127.72,216.91Z" transform="translate(-7.96 -140.34)"/><path class="cls-2" d="M142.41,223.22V211.86h-4.25v-1.52h10.22v1.52h-4.27v11.36Z" transform="translate(-7.96 -140.34)"/><path class="cls-2" d="M150.16,223.22V210.34h9.32v1.52h-7.61v3.94H159v1.52h-7.12v4.38h7.91v1.52Z" transform="translate(-7.96 -140.34)"/><path class="cls-2" d="M162.06,223.22V210.34h1.71V221.7h6.34v1.52Z" transform="translate(-7.96 -140.34)"/><path class="cls-2" d="M172.18,223.22V210.34h9.31v1.52h-7.61v3.94H181v1.52h-7.13v4.38h7.91v1.52Z" transform="translate(-7.96 -140.34)"/><path class="cls-2" d="M187.83,223.22l-5-12.88h1.84L188,219.7c.27.75.5,1.45.68,2.11.2-.71.43-1.41.69-2.11l3.48-9.36h1.75l-5,12.88Z" transform="translate(-7.96 -140.34)"/><path class="cls-2" d="M196.44,223.22V210.34h1.71v12.88Z" transform="translate(-7.96 -140.34)"/><path class="cls-2" d="M200.58,219.08l1.6-.14a3.56,3.56,0,0,0,.54,1.59,2.85,2.85,0,0,0,1.29,1,4.86,4.86,0,0,0,2,.38,4.6,4.6,0,0,0,1.72-.29,2.37,2.37,0,0,0,1.11-.79,1.83,1.83,0,0,0,.37-1.11,1.68,1.68,0,0,0-.35-1.05,2.52,2.52,0,0,0-1.16-.76,20.29,20.29,0,0,0-2.3-.63,12,12,0,0,1-2.48-.81,3.42,3.42,0,0,1-1.38-1.2,2.93,2.93,0,0,1-.45-1.6,3.24,3.24,0,0,1,.55-1.82,3.4,3.4,0,0,1,1.62-1.29,6,6,0,0,1,2.36-.44,6.42,6.42,0,0,1,2.53.46,3.62,3.62,0,0,1,1.68,1.36,3.84,3.84,0,0,1,.64,2l-1.64.12a2.62,2.62,0,0,0-.89-1.84,3.47,3.47,0,0,0-2.25-.63,3.57,3.57,0,0,0-2.25.57,1.7,1.7,0,0,0-.71,1.36,1.48,1.48,0,0,0,.5,1.15,6.93,6.93,0,0,0,2.57.92,15.89,15.89,0,0,1,2.85.82,3.9,3.9,0,0,1,1.67,1.31,3.25,3.25,0,0,1,.53,1.83,3.43,3.43,0,0,1-.59,1.94,3.84,3.84,0,0,1-1.69,1.42,6,6,0,0,1-2.48.5,7.4,7.4,0,0,1-2.93-.51,4.13,4.13,0,0,1-1.86-1.53A4.31,4.31,0,0,1,200.58,219.08Z" transform="translate(-7.96 -140.34)"/><path class="cls-2" d="M213.45,223.22V210.34h1.71v12.88Z" transform="translate(-7.96 -140.34)"/><path class="cls-2" d="M217.64,217a7,7,0,0,1,1.73-5,5.83,5.83,0,0,1,4.44-1.81A6.15,6.15,0,0,1,227,211a5.52,5.52,0,0,1,2.18,2.38,8.15,8.15,0,0,1,0,7,5.31,5.31,0,0,1-2.24,2.35,6.38,6.38,0,0,1-3.13.79,6.07,6.07,0,0,1-3.25-.88,5.6,5.6,0,0,1-2.17-2.4A7.27,7.27,0,0,1,217.64,217Zm1.76,0a5.17,5.17,0,0,0,1.25,3.67,4.37,4.37,0,0,0,6.31,0,5.46,5.46,0,0,0,1.25-3.84,6.68,6.68,0,0,0-.53-2.75,4.16,4.16,0,0,0-1.56-1.82,4.22,4.22,0,0,0-2.3-.64,4.35,4.35,0,0,0-3.11,1.24C219.84,213.65,219.4,215,219.4,217Z" transform="translate(-7.96 -140.34)"/><path class="cls-2" d="M232.15,223.22V210.34h1.74l6.77,10.11V210.34h1.64v12.88h-1.75l-6.77-10.12v10.12Z" transform="translate(-7.96 -140.34)"/><path class="cls-2" d="M249.73,216.91a2.12,2.12,0,0,1,.66-1.57,2.22,2.22,0,0,1,3.14,0,2.12,2.12,0,0,1,.66,1.57,2.15,2.15,0,0,1-.66,1.58,2.22,2.22,0,0,1-3.14,0A2.15,2.15,0,0,1,249.73,216.91Z" transform="translate(-7.96 -140.34)"/><path class="cls-2" d="M261.41,223.22V210.34H264l3,9.12c.28.85.49,1.49.61,1.91q.23-.7.69-2.07l3.09-9h2.29v12.88h-1.64V212.44l-3.75,10.78h-1.54l-3.72-11v11Z" transform="translate(-7.96 -140.34)"/><path class="cls-2" d="M284.92,210.34h1.7v7.44a8.88,8.88,0,0,1-.44,3.09,3.75,3.75,0,0,1-1.59,1.86,5.66,5.66,0,0,1-3,.71,6.28,6.28,0,0,1-3-.62A3.57,3.57,0,0,1,277,221a8.56,8.56,0,0,1-.49-3.23v-7.44h1.7v7.43a7.5,7.5,0,0,0,.31,2.48,2.34,2.34,0,0,0,1.08,1.22,3.64,3.64,0,0,0,1.85.43,3.57,3.57,0,0,0,2.69-.85,4.93,4.93,0,0,0,.8-3.28Z" transform="translate(-7.96 -140.34)"/><path class="cls-2" d="M288.88,219.08l1.61-.14a3.44,3.44,0,0,0,.53,1.59,2.89,2.89,0,0,0,1.3,1,4.78,4.78,0,0,0,2,.38,4.65,4.65,0,0,0,1.73-.29,2.48,2.48,0,0,0,1.11-.79,1.89,1.89,0,0,0,.36-1.11,1.62,1.62,0,0,0-.35-1.05,2.47,2.47,0,0,0-1.16-.76,20.55,20.55,0,0,0-2.29-.63,11.92,11.92,0,0,1-2.49-.81,3.49,3.49,0,0,1-1.38-1.2,2.93,2.93,0,0,1-.45-1.6,3.32,3.32,0,0,1,.55-1.82,3.4,3.4,0,0,1,1.62-1.29,6,6,0,0,1,2.37-.44,6.4,6.4,0,0,1,2.52.46,3.7,3.7,0,0,1,1.69,1.36,3.92,3.92,0,0,1,.63,2l-1.64.12a2.58,2.58,0,0,0-.89-1.84,3.42,3.42,0,0,0-2.24-.63,3.61,3.61,0,0,0-2.26.57,1.7,1.7,0,0,0-.71,1.36,1.46,1.46,0,0,0,.51,1.15,6.78,6.78,0,0,0,2.57.92,16.44,16.44,0,0,1,2.85.82,3.87,3.87,0,0,1,1.66,1.31,3.18,3.18,0,0,1,.54,1.83,3.51,3.51,0,0,1-.59,1.94,3.92,3.92,0,0,1-1.7,1.42,6,6,0,0,1-2.48.5,7.43,7.43,0,0,1-2.93-.51,4.05,4.05,0,0,1-1.85-1.53A4.32,4.32,0,0,1,288.88,219.08Z" transform="translate(-7.96 -140.34)"/><path class="cls-2" d="M301.75,223.22V210.34h1.71v12.88Z" transform="translate(-7.96 -140.34)"/><path class="cls-2" d="M315.66,218.71l1.7.43a5.7,5.7,0,0,1-1.93,3.2,5.31,5.31,0,0,1-3.4,1.1,6.09,6.09,0,0,1-3.39-.85,5.31,5.31,0,0,1-2-2.45,8.86,8.86,0,0,1-.68-3.46,7.63,7.63,0,0,1,.77-3.51,5.17,5.17,0,0,1,2.19-2.27,6.4,6.4,0,0,1,3.13-.78,5.34,5.34,0,0,1,3.25,1,5.08,5.08,0,0,1,1.83,2.77l-1.67.4a4,4,0,0,0-1.3-2.05,3.47,3.47,0,0,0-2.15-.64,4.11,4.11,0,0,0-2.48.71,3.71,3.71,0,0,0-1.4,1.91,7.71,7.71,0,0,0-.41,2.47,7.81,7.81,0,0,0,.48,2.87,3.62,3.62,0,0,0,1.49,1.84,4.19,4.19,0,0,0,2.19.6,3.66,3.66,0,0,0,2.42-.82A4.22,4.22,0,0,0,315.66,218.71Z" transform="translate(-7.96 -140.34)"/></svg>