<?xml version="1.0" encoding="utf-8"?>
<!-- Generator: Adobe Illustrator 22.0.1, SVG Export Plug-In . SVG Version: 6.00 Build 0)  -->
<svg version="1.1" xmlns="http://www.w3.org/2000/svg" xmlns:xlink="http://www.w3.org/1999/xlink" x="0px" y="0px"
	 viewBox="0 0 300 300" style="enable-background:new 0 0 300 300;" xml:space="preserve">
<style type="text/css">
	.st0{display:none;}
	.st1{display:inline;}
	.st2{fill:#FF8D59;}
	.st3{display:inline;fill:#CCCCCC;}
	.st4{fill:#FFFFFF;}
	.st5{fill:#52CC1F;}
	.st6{fill:none;stroke:#FFFFFF;stroke-width:5;stroke-miterlimit:10;}
	.st7{fill:#4049FF;}
	.st8{fill:#FFDA00;}
	.st9{fill:none;stroke:#FFFFFF;stroke-width:5;stroke-linecap:round;stroke-linejoin:round;stroke-miterlimit:10;}
	.st10{fill:#FFB25F;}
	.st11{fill:#FF661A;stroke:#FFFFFF;stroke-width:5;stroke-linecap:round;stroke-linejoin:round;stroke-miterlimit:10;}
	.st12{fill:#FF661A;}
	.st13{fill:#9B2100;stroke:#FFFFFF;stroke-width:5;stroke-linecap:round;stroke-linejoin:round;stroke-miterlimit:10;}
	.st14{fill:#D88B6C;}
	.st15{fill:#FFFFFF;stroke:#FFFFFF;stroke-width:5;stroke-linecap:round;stroke-linejoin:round;stroke-miterlimit:10;}
	.st16{clip-path:url(#SVGID_2_);fill:#FFFFFF;}
	.st17{clip-path:url(#SVGID_4_);fill:#FFFFFF;}
	.st18{display:inline;fill:#4C4C4C;}
	.st19{stroke:#FFFFFF;stroke-width:5;stroke-linecap:round;stroke-linejoin:round;stroke-miterlimit:10;}
	.st20{clip-path:url(#SVGID_6_);fill:#FFFFFF;}
	.st21{clip-path:url(#SVGID_8_);fill:#FFFFFF;}
</style>
<g id="margins" class="st0">
</g>
<g id="coloured">
	<g id="bckgrd" class="st0">
		<polygon id="grey" class="st3" points="310,314 309,626 -73,626 -73,-29 968,-29 968,308 		"/>
	</g>
	<g id="movies">
		<g id="left-wheel">
			<circle class="st2" cx="96.2" cy="89.1" r="41.6"/>
			<path class="st4" d="M96.2,50c21.6,0,39.1,17.5,39.1,39.1c0,21.6-17.5,39.1-39.1,39.1s-39.1-17.5-39.1-39.1
				C57.1,67.5,74.6,50,96.2,50 M96.2,45c-24.3,0-44.1,19.8-44.1,44.1s19.8,44.1,44.1,44.1s44.1-19.8,44.1-44.1S120.6,45,96.2,45
				L96.2,45z"/>
		</g>
		<g id="right-wheel">
			<path class="st2" d="M183.2,130.8c-18.8,0-34-15.3-34-34c0-18.8,15.3-34,34-34c18.8,0,34,15.3,34,34
				C217.2,115.5,201.9,130.8,183.2,130.8z"/>
			<path class="st4" d="M183.2,65.2c17.4,0,31.5,14.1,31.5,31.5s-14.1,31.5-31.5,31.5s-31.5-14.1-31.5-31.5S165.8,65.2,183.2,65.2
				 M183.2,60.2c-20.1,0-36.5,16.4-36.5,36.5s16.4,36.5,36.5,36.5s36.5-16.4,36.5-36.5S203.3,60.2,183.2,60.2L183.2,60.2z"/>
		</g>
		<g id="lens">
			<path class="st2" d="M244.2,236.2c-7.7,0-16.2-7.4-18.8-9.9c-7.4-0.5-13.3-6.7-13.3-14.3v-45.3c0-7.6,5.9-13.8,13.4-14.3
				c2.8-2.3,12.7-9.9,18.7-9.9c7.6,0,14.3,6.7,14.3,14.3v65C258.5,230.4,252.7,236.2,244.2,236.2z"/>
			<path class="st4" d="M244.2,145c5.9,0,11.8,5.3,11.8,11.8v65c0,6.5-3.9,11.8-11.8,11.8c-7.9,0-17.7-9.9-17.7-9.9
				c-6.5,0-11.8-5.3-11.8-11.8v-45.3c0-6.5,5.3-11.8,11.8-11.8C226.4,154.9,238.3,145,244.2,145 M244.2,140c-6.4,0-15.5,6.7-19.6,10
				c-8.4,1-14.9,8.1-14.9,16.7V212c0,8.6,6.4,15.6,14.7,16.7c3.4,3.1,11.9,10,19.9,10c9.9,0,16.8-6.9,16.8-16.8v-65
				C261,147.9,253.1,140,244.2,140L244.2,140z"/>
		</g>
		<g id="box">
			<path class="st2" d="M49,252.5c-4.1,0-7.5-3.4-7.5-7.5V140.9c0-4.1,3.4-7.5,7.5-7.5h169.3c4.1,0,7.5,3.4,7.5,7.5V245
				c0,4.1-3.4,7.5-7.5,7.5H49z"/>
			<path class="st4" d="M218.4,135.9c2.8,0,5,2.3,5,5V245c0,2.8-2.3,5-5,5H49c-2.8,0-5-2.3-5-5V140.9c0-2.8,2.3-5,5-5H218.4
				 M218.4,130.9H49c-5.5,0-10,4.5-10,10V245c0,5.5,4.5,10,10,10h169.3c5.5,0,10-4.5,10-10V140.9
				C228.4,135.4,223.9,130.9,218.4,130.9L218.4,130.9z"/>
		</g>
	</g>
	<g id="television">
	</g>
	<g id="music">
	</g>
	<g id="favourite">
	</g>
	<g id="funny">
	</g>
	<g id="adventure">
	</g>
	<g id="sports">
	</g>
	<g id="educational">
	</g>
	<g id="serious">
	</g>
</g>
<g id="black-white" class="st0">
	<rect id="black-rectangle" x="-18" y="-19" class="st18" width="979" height="980"/>
	<g id="movies_1_" class="st1">
		<g id="left-wheel_1_">
			<circle cx="96.2" cy="89.1" r="41.6"/>
			<path class="st4" d="M96.2,50c21.6,0,39.1,17.5,39.1,39.1c0,21.6-17.5,39.1-39.1,39.1s-39.1-17.5-39.1-39.1
				C57.1,67.5,74.6,50,96.2,50 M96.2,45c-24.3,0-44.1,19.8-44.1,44.1s19.8,44.1,44.1,44.1s44.1-19.8,44.1-44.1S120.6,45,96.2,45
				L96.2,45z"/>
		</g>
		<g id="right-wheel_1_">
			<path d="M183.2,130.8c-18.8,0-34-15.3-34-34c0-18.8,15.3-34,34-34c18.8,0,34,15.3,34,34C217.2,115.5,201.9,130.8,183.2,130.8z"/>
			<path class="st4" d="M183.2,65.2c17.4,0,31.5,14.1,31.5,31.5s-14.1,31.5-31.5,31.5s-31.5-14.1-31.5-31.5S165.8,65.2,183.2,65.2
				 M183.2,60.2c-20.1,0-36.5,16.4-36.5,36.5s16.4,36.5,36.5,36.5s36.5-16.4,36.5-36.5S203.3,60.2,183.2,60.2L183.2,60.2z"/>
		</g>
		<g id="lens_1_">
			<path d="M244.2,236.2c-7.7,0-16.2-7.4-18.8-9.9c-7.4-0.5-13.3-6.7-13.3-14.3v-45.3c0-7.6,5.9-13.8,13.4-14.3
				c2.8-2.3,12.7-9.9,18.7-9.9c7.6,0,14.3,6.7,14.3,14.3v65C258.5,230.4,252.7,236.2,244.2,236.2z"/>
			<path class="st4" d="M244.2,145c5.9,0,11.8,5.3,11.8,11.8v65c0,6.5-3.9,11.8-11.8,11.8c-7.9,0-17.7-9.9-17.7-9.9
				c-6.5,0-11.8-5.3-11.8-11.8v-45.3c0-6.5,5.3-11.8,11.8-11.8C226.4,154.9,238.3,145,244.2,145 M244.2,140c-6.4,0-15.5,6.7-19.6,10
				c-8.4,1-14.9,8.1-14.9,16.7V212c0,8.6,6.4,15.6,14.7,16.7c3.4,3.1,11.9,10,19.9,10c9.9,0,16.8-6.9,16.8-16.8v-65
				C261,147.9,253.1,140,244.2,140L244.2,140z"/>
		</g>
		<g id="box_1_">
			<path d="M49,252.5c-4.1,0-7.5-3.4-7.5-7.5V140.9c0-4.1,3.4-7.5,7.5-7.5h169.3c4.1,0,7.5,3.4,7.5,7.5V245c0,4.1-3.4,7.5-7.5,7.5
				H49z"/>
			<path class="st4" d="M218.4,135.9c2.8,0,5,2.3,5,5V245c0,2.8-2.3,5-5,5H49c-2.8,0-5-2.3-5-5V140.9c0-2.8,2.3-5,5-5H218.4
				 M218.4,130.9H49c-5.5,0-10,4.5-10,10V245c0,5.5,4.5,10,10,10h169.3c5.5,0,10-4.5,10-10V140.9
				C228.4,135.4,223.9,130.9,218.4,130.9L218.4,130.9z"/>
		</g>
	</g>
	<g id="television_1_" class="st1">
	</g>
	<g id="music_1_" class="st1">
	</g>
	<g id="favourite_1_" class="st1">
	</g>
	<g id="funny_1_" class="st1">
	</g>
	<g id="adventure_copy" class="st1">
	</g>
	<g id="sports_copy" class="st1">
	</g>
	<g id="educational_copy" class="st1">
	</g>
	<g id="serious_copy" class="st1">
	</g>
</g>
</svg>
