<?xml version="1.0" encoding="utf-8"?>
<!-- Generator: Adobe Illustrator 22.0.1, SVG Export Plug-In . SVG Version: 6.00 Build 0)  -->
<svg version="1.1" xmlns="http://www.w3.org/2000/svg" xmlns:xlink="http://www.w3.org/1999/xlink" x="0px" y="0px"
	 viewBox="0 0 300 300" style="enable-background:new 0 0 300 300;" xml:space="preserve">
<style type="text/css">
	.st0{display:none;}
	.st1{display:inline;}
	.st2{fill:#FF8D59;}
	.st3{display:inline;fill:#CCCCCC;}
	.st4{fill:#FFFFFF;}
	.st5{fill:#52CC1F;}
	.st6{fill:none;stroke:#FFFFFF;stroke-width:5;stroke-miterlimit:10;}
	.st7{fill:#4049FF;}
	.st8{fill:#FFDA00;}
	.st9{fill:none;stroke:#FFFFFF;stroke-width:5;stroke-linecap:round;stroke-linejoin:round;stroke-miterlimit:10;}
	.st10{fill:#FFB25F;}
	.st11{fill:#FF661A;stroke:#FFFFFF;stroke-width:5;stroke-linecap:round;stroke-linejoin:round;stroke-miterlimit:10;}
	.st12{fill:#FF661A;}
	.st13{fill:#9B2100;stroke:#FFFFFF;stroke-width:5;stroke-linecap:round;stroke-linejoin:round;stroke-miterlimit:10;}
	.st14{fill:#D88B6C;}
	.st15{fill:#FFFFFF;stroke:#FFFFFF;stroke-width:5;stroke-linecap:round;stroke-linejoin:round;stroke-miterlimit:10;}
	.st16{clip-path:url(#SVGID_2_);fill:#FFFFFF;}
	.st17{clip-path:url(#SVGID_4_);fill:#FFFFFF;}
	.st18{display:inline;fill:#4C4C4C;}
	.st19{stroke:#FFFFFF;stroke-width:5;stroke-linecap:round;stroke-linejoin:round;stroke-miterlimit:10;}
	.st20{clip-path:url(#SVGID_6_);fill:#FFFFFF;}
	.st21{clip-path:url(#SVGID_8_);fill:#FFFFFF;}
</style>
<g id="margins" class="st0">
</g>
<g id="coloured">
	<g id="bckgrd" class="st0">
		<polygon id="grey" class="st3" points="-330,314 -331,626 -713,626 -713,-29 328,-29 328,308 		"/>
	</g>
	<g id="movies">
	</g>
	<g id="television">
	</g>
	<g id="music">
		<g id="eighth-note">
			<path class="st7" d="M113.3,262c-19.5,0-35.4-12.7-35.4-28.4s15.9-28.4,35.4-28.4c5.8,0,11.4,1.1,16.5,3.3V58.9l0.6-0.7
				c2-2.2,19.4-21.7,31.6-21.7c11,0,22.8,12.5,29.1,19.1c0.9,1,1.7,1.8,2.3,2.4c5.4,5.4,16,13.2,21,13.2c4.8,0,15.6-3.5,19.4-4.9
				l6.7-2.5l-3.8,6.1c-0.4,0.7-11,17.6-23.6,17.6c-13.3,0-30.2-16.5-32.1-18.4c-4.4-4.4-13.5-11.9-19.7-11.9c-5.2,0-10.4,2.7-12.7,4
				v174.2h-0.1C147.4,250.3,132,262,113.3,262z"/>
			<path class="st4" d="M161.9,39c11.4,0,24.6,15.8,29.7,20.8c5.1,5.1,16.4,13.9,22.7,13.9s20.2-5.1,20.2-5.1s-10.1,16.4-21.5,16.4
				s-26.5-13.9-30.3-17.7c-3.8-3.8-13.9-12.6-21.5-12.6s-15.2,5.1-15.2,5.1V233h0c0,0.2,0,0.4,0,0.6c0,14.3-14.7,25.9-32.9,25.9
				s-32.9-11.6-32.9-25.9c0-14.3,14.7-25.9,32.9-25.9c7.1,0,13.6,1.8,19,4.8V59.8C132.2,59.8,150.6,39,161.9,39 M161.9,34
				c-6,0-13.4,3.8-22.4,11.6c-6.2,5.4-10.9,10.7-11.1,10.9l-1.2,1.4v1.9v145c-4.4-1.4-9.1-2.2-14-2.2c-20.9,0-37.9,13.9-37.9,30.9
				s17,30.9,37.9,30.9c19.1,0,34.9-11.6,37.5-26.5h0.4l0-3.9c0-0.2,0-0.3,0-0.5c0-0.1,0-0.1,0-0.2l0-0.4V62.7
				c2.6-1.3,6.6-2.9,10.2-2.9c4.4,0,12.4,5.6,17.9,11.2c3.2,3.2,19.9,19.2,33.9,19.2c13.8,0,24.6-16.9,25.7-18.8l7.5-12.2L232.9,64
				c-5.1,1.8-14.6,4.8-18.5,4.8c-3.8,0-13.6-6.8-19.2-12.4c-0.6-0.6-1.4-1.4-2.3-2.4C185.8,46.5,174,34,161.9,34L161.9,34z"/>
		</g>
	</g>
	<g id="favourite">
	</g>
	<g id="funny">
	</g>
	<g id="adventure">
	</g>
	<g id="sports">
	</g>
	<g id="educational">
	</g>
	<g id="serious">
	</g>
</g>
<g id="black-white" class="st0">
	<rect id="black-rectangle" x="-658" y="-19" class="st18" width="979" height="980"/>
	<g id="movies_1_" class="st1">
	</g>
	<g id="television_1_" class="st1">
	</g>
	<g id="music_1_" class="st1">
		<g id="eighth-note_1_">
			<path d="M113.3,262c-19.5,0-35.4-12.7-35.4-28.4s15.9-28.4,35.4-28.4c5.8,0,11.4,1.1,16.5,3.3V58.9l0.6-0.7
				c2-2.2,19.4-21.7,31.6-21.7c11,0,22.8,12.5,29.1,19.1c0.9,1,1.7,1.8,2.3,2.4c5.4,5.4,16,13.2,21,13.2c4.8,0,15.6-3.5,19.4-4.9
				l6.7-2.5l-3.8,6.1c-0.4,0.7-11,17.6-23.6,17.6c-13.3,0-30.2-16.5-32.1-18.4c-4.4-4.4-13.5-11.9-19.7-11.9c-5.2,0-10.4,2.7-12.7,4
				v174.2h-0.1C147.4,250.3,132,262,113.3,262z"/>
			<path class="st4" d="M161.9,39c11.4,0,24.6,15.8,29.7,20.8c5.1,5.1,16.4,13.9,22.7,13.9s20.2-5.1,20.2-5.1s-10.1,16.4-21.5,16.4
				s-26.5-13.9-30.3-17.7c-3.8-3.8-13.9-12.6-21.5-12.6s-15.2,5.1-15.2,5.1V233h0c0,0.2,0,0.4,0,0.6c0,14.3-14.7,25.9-32.9,25.9
				s-32.9-11.6-32.9-25.9c0-14.3,14.7-25.9,32.9-25.9c7.1,0,13.6,1.8,19,4.8V59.8C132.2,59.8,150.6,39,161.9,39 M161.9,34
				c-6,0-13.4,3.8-22.4,11.6c-6.2,5.4-10.9,10.7-11.1,10.9l-1.2,1.4v1.9v145c-4.4-1.4-9.1-2.2-14-2.2c-20.9,0-37.9,13.9-37.9,30.9
				s17,30.9,37.9,30.9c19.1,0,34.9-11.6,37.5-26.5h0.4l0-3.9c0-0.2,0-0.3,0-0.5c0-0.1,0-0.1,0-0.2l0-0.4V62.7
				c2.6-1.3,6.6-2.9,10.2-2.9c4.4,0,12.4,5.6,17.9,11.2c3.2,3.2,19.9,19.2,33.9,19.2c13.8,0,24.6-16.9,25.7-18.8l7.5-12.2L232.9,64
				c-5.1,1.8-14.6,4.8-18.5,4.8c-3.8,0-13.6-6.8-19.2-12.4c-0.6-0.6-1.4-1.4-2.3-2.4C185.8,46.5,174,34,161.9,34L161.9,34z"/>
		</g>
	</g>
	<g id="favourite_1_" class="st1">
	</g>
	<g id="funny_1_" class="st1">
	</g>
	<g id="adventure_copy" class="st1">
	</g>
	<g id="sports_copy" class="st1">
	</g>
	<g id="educational_copy" class="st1">
	</g>
	<g id="serious_copy" class="st1">
	</g>
</g>
</svg>
