<?xml version="1.0" encoding="utf-8"?>
<!-- Generator: Adobe Illustrator 22.0.1, SVG Export Plug-In . SVG Version: 6.00 Build 0)  -->
<svg version="1.1" xmlns="http://www.w3.org/2000/svg" xmlns:xlink="http://www.w3.org/1999/xlink" x="0px" y="0px"
	 viewBox="0 0 300 300" style="enable-background:new 0 0 300 300;" xml:space="preserve">
<style type="text/css">
	.st0{display:none;}
	.st1{display:inline;}
	.st2{fill:#FF8D59;}
	.st3{display:inline;fill:#CCCCCC;}
	.st4{fill:#FFFFFF;}
	.st5{fill:#52CC1F;}
	.st6{fill:none;stroke:#FFFFFF;stroke-width:5;stroke-miterlimit:10;}
	.st7{fill:#4049FF;}
	.st8{fill:#FFDA00;}
	.st9{fill:none;stroke:#FFFFFF;stroke-width:5;stroke-linecap:round;stroke-linejoin:round;stroke-miterlimit:10;}
	.st10{fill:#FFB25F;}
	.st11{fill:#FF661A;stroke:#FFFFFF;stroke-width:5;stroke-linecap:round;stroke-linejoin:round;stroke-miterlimit:10;}
	.st12{fill:#FF661A;}
	.st13{fill:#9B2100;stroke:#FFFFFF;stroke-width:5;stroke-linecap:round;stroke-linejoin:round;stroke-miterlimit:10;}
	.st14{fill:#D88B6C;}
	.st15{fill:#FFFFFF;stroke:#FFFFFF;stroke-width:5;stroke-linecap:round;stroke-linejoin:round;stroke-miterlimit:10;}
	.st16{clip-path:url(#SVGID_2_);fill:#FFFFFF;}
	.st17{clip-path:url(#SVGID_4_);fill:#FFFFFF;}
	.st18{display:inline;fill:#4C4C4C;}
	.st19{stroke:#FFFFFF;stroke-width:5;stroke-linecap:round;stroke-linejoin:round;stroke-miterlimit:10;}
	.st20{clip-path:url(#SVGID_6_);fill:#FFFFFF;}
	.st21{clip-path:url(#SVGID_8_);fill:#FFFFFF;}
</style>
<g id="margins" class="st0">
</g>
<g id="coloured">
	<g id="bckgrd" class="st0">
		<polygon id="grey" class="st3" points="-10,314 -11,626 -393,626 -393,-29 648,-29 648,308 		"/>
	</g>
	<g id="movies">
	</g>
	<g id="television">
		<g id="top-box">
			<path class="st4" d="M163.5,97.5h-31c-1.1,0-2-0.9-2-2v-14c0-1.1,0.9-2,2-2h31c1.1,0,2,0.9,2,2v14
				C165.5,96.6,164.6,97.5,163.5,97.5z"/>
		</g>
		<g id="outside-screen">
			<path class="st5" d="M58.2,256c-3.7,0-6.7-3-6.7-6.7V98.7c0-3.7,3-6.7,6.7-6.7h183.7c3.7,0,6.7,3,6.7,6.7v150.7
				c0,3.7-3,6.7-6.7,6.7H58.2z"/>
			<g>
				<path class="st4" d="M241.8,94.5c2.3,0,4.2,1.9,4.2,4.2v150.7c0,2.3-1.9,4.2-4.2,4.2H58.2c-2.3,0-4.2-1.9-4.2-4.2V98.7
					c0-2.3,1.9-4.2,4.2-4.2H241.8 M241.8,89.5H58.2c-5.1,0-9.2,4.1-9.2,9.2v150.7c0,5.1,4.1,9.2,9.2,9.2h183.7
					c5.1,0,9.2-4.1,9.2-9.2V98.7C251,93.6,246.9,89.5,241.8,89.5L241.8,89.5z"/>
			</g>
		</g>
		<g id="middle-screen">
			<path class="st4" d="M73,107h154c6.6,0,12,5.4,12,12v110c0,6.6-5.4,12-12,12H73c-6.6,0-12-5.4-12-12V119
				C61,112.4,66.4,107,73,107z"/>
		</g>
		<polyline id="antenna" class="st6" points="111,36 150,90 189,36 		"/>
		<circle id="left-circle" class="st4" cx="110.5" cy="35.5" r="7"/>
		<circle id="left-circle_1_" class="st4" cx="189" cy="36" r="7"/>
	</g>
	<g id="music">
	</g>
	<g id="favourite">
	</g>
	<g id="funny">
	</g>
	<g id="adventure">
	</g>
	<g id="sports">
	</g>
	<g id="educational">
	</g>
	<g id="serious">
	</g>
</g>
<g id="black-white" class="st0">
	<rect id="black-rectangle" x="-338" y="-19" class="st18" width="979" height="980"/>
	<g id="movies_1_" class="st1">
	</g>
	<g id="television_1_" class="st1">
		<g id="top-box_1_">
			<path class="st4" d="M163.5,97.5h-31c-1.1,0-2-0.9-2-2v-14c0-1.1,0.9-2,2-2h31c1.1,0,2,0.9,2,2v14
				C165.5,96.6,164.6,97.5,163.5,97.5z"/>
		</g>
		<g id="outside-screen_1_">
			<path d="M58.2,256c-3.7,0-6.7-3-6.7-6.7V98.7c0-3.7,3-6.7,6.7-6.7h183.7c3.7,0,6.7,3,6.7,6.7v150.7c0,3.7-3,6.7-6.7,6.7H58.2z"/>
			<g>
				<path class="st4" d="M241.8,94.5c2.3,0,4.2,1.9,4.2,4.2v150.7c0,2.3-1.9,4.2-4.2,4.2H58.2c-2.3,0-4.2-1.9-4.2-4.2V98.7
					c0-2.3,1.9-4.2,4.2-4.2H241.8 M241.8,89.5H58.2c-5.1,0-9.2,4.1-9.2,9.2v150.7c0,5.1,4.1,9.2,9.2,9.2h183.7
					c5.1,0,9.2-4.1,9.2-9.2V98.7C251,93.6,246.9,89.5,241.8,89.5L241.8,89.5z"/>
			</g>
		</g>
		<g id="middle-screen_1_">
			<path class="st4" d="M73,107h154c6.6,0,12,5.4,12,12v110c0,6.6-5.4,12-12,12H73c-6.6,0-12-5.4-12-12V119
				C61,112.4,66.4,107,73,107z"/>
		</g>
		<polyline id="antenna_1_" class="st6" points="111,36 150,90 189,36 		"/>
		<circle id="left-circle_3_" class="st4" cx="110.5" cy="35.5" r="7"/>
		<circle id="left-circle_2_" class="st4" cx="189" cy="36" r="7"/>
	</g>
	<g id="music_1_" class="st1">
	</g>
	<g id="favourite_1_" class="st1">
	</g>
	<g id="funny_1_" class="st1">
	</g>
	<g id="adventure_copy" class="st1">
	</g>
	<g id="sports_copy" class="st1">
	</g>
	<g id="educational_copy" class="st1">
	</g>
	<g id="serious_copy" class="st1">
	</g>
</g>
</svg>
